<?xml version="1.0" encoding="utf-8"?>
<!-- Generator: Adobe Illustrator 17.1.0, SVG Export Plug-In . SVG Version: 6.00 Build 0)  -->
<!DOCTYPE svg PUBLIC "-//W3C//DTD SVG 1.1//EN" "http://www.w3.org/Graphics/SVG/1.1/DTD/svg11.dtd">
<svg version="1.1" xmlns="http://www.w3.org/2000/svg" xmlns:xlink="http://www.w3.org/1999/xlink" x="0px" y="0px"
	 viewBox="0 0 474.2 474" enable-background="new 0 0 474.2 474" xml:space="preserve">
<g id="Layer_2">
</g>
<g id="Layer_1">
	<g>
		<circle fill="#FFFFFF" cx="237" cy="237" r="144"/>
		<path fill="#FFFFFF" d="M379.8,255.5l-62.2-62.2l-1.9,37.9l-0.2,74.3l-157-0.5l76.1,76.1c0.8,0,1.7,0,2.5,0
			C310.3,381,370.8,326.3,379.8,255.5z"/>
		<path opacity="0.1" fill="#231F20" d="M379.8,255.5l-62.2-62.2l-1.9,37.9l-0.2,74.3l-157-0.5l76.1,76.1c0.8,0,1.7,0,2.5,0
			C310.3,381,370.8,326.3,379.8,255.5z"/>
		<g>
			<path fill="#B25F4F" d="M220.6,180.6l16.4,0l16.4,0v8.8h11.8v-13.6c0-3.8-3.1-7-7-7l-21,0v0l-0.3,0l-0.3,0v0l-21,0
				c-3.8,0-7,3.1-7,7v13.6h11.8V180.6z"/>
			<polygon fill="#B25F4F" points="237.2,193.5 236.8,193.5 156.3,193.5 156.3,232.6 221.4,239.1 221.4,227.6 236.8,227.6
				236.8,227.6 237,227.6 237.2,227.6 237.2,227.6 252.7,227.6 252.7,239.1 317.8,232.6 317.8,193.5 			"/>
			<polygon fill="#B25F4F" points="252.7,258.6 237.2,258.6 236.8,258.6 221.4,258.6 221.4,245.3 158.4,238.8 158.4,305.2
				236.8,305.2 237.2,305.2 315.6,305.2 315.6,238.8 252.7,245.3 			"/>
			<polygon fill="#B25F4F" points="246.8,252.7 246.8,233.5 237.3,233.5 236.8,233.5 227.3,233.5 227.3,252.7 236.8,252.7
				237.3,252.7 			"/>
		</g>
	</g>
</g>
</svg>
