<?xml version="1.0" encoding="utf-8"?>
<!-- Generator: Adobe Illustrator 17.1.0, SVG Export Plug-In . SVG Version: 6.00 Build 0)  -->
<!DOCTYPE svg PUBLIC "-//W3C//DTD SVG 1.1//EN" "http://www.w3.org/Graphics/SVG/1.1/DTD/svg11.dtd">
<svg version="1.1" xmlns="http://www.w3.org/2000/svg" xmlns:xlink="http://www.w3.org/1999/xlink" x="0px" y="0px"
	 viewBox="0 0 474.2 474" enable-background="new 0 0 474.2 474" xml:space="preserve">
<g id="Layer_2">
</g>
<g id="Layer_1">
	<g>
		<circle fill="#FFFFFF" cx="237.2" cy="237.3" r="144"/>
		<path fill="#FFFFFF" d="M377.2,271.1l-27.2-27.2l-14.5,47.5L229,319.6l-66.5-23.5l-11.4,15.6l68.5,68.5c5.8,0.7,11.6,1.1,17.6,1.1
			C305.1,381.3,361.9,334.3,377.2,271.1z"/>
		<path opacity="0.1" fill="#231F20" d="M377.2,271.1l-27.2-27.2l-14.5,47.5L229,319.6l-66.5-23.5l-11.4,15.6l68.5,68.5
			c5.8,0.7,11.6,1.1,17.6,1.1C305.1,381.3,361.9,334.3,377.2,271.1z"/>
		<path fill="#327FA5" d="M348.7,241l-9.3-15.6L324,235.5l0.8-4.2l-2.6-2.1l-25,11.7l12.4-11.3l2.9,1.1l8.4-7.6l4.2,4.8l11.2-9.7
			l6.3,5.5l1.1-16.9l-7.4,2.4l-8.2-23.7l-8.7,5.2l-5.5-12.6l-18.8-20.7l-9.9,24.9l-4.8-14.5l-5.8,5.9l-5.8,1.3l-8.8,13.3l-9.9-10.3
			l-4.4,7.3l-14.7-30.2l-10.4,4.8l-16.7-24l-19.9,21.5l-12.9,16.1l-5.8,3.2l-11.6,26.1l-12.3,3.8l-3.1,16.6l-6.3,0.3l-4.3,26.3
			l-3.4,3.5c-0.1,0.4-0.1,0.8-0.1,1.2c0,0,0,0,0,0c0,0.1-0.1,3,0.1,4.3c0.2,4.7,0.8,9.2,1.8,13.5c5.1,14.1,13,27,23.1,38
			c20.2,17.8,51.1,27.8,86.2,28.3c33.6,0.5,64-7.2,85-24.7c11.2-11.1,20-24.5,25.7-39.3c2.5-8.4,3.9-17.6,4.1-27.8
			C350.4,245,350,243.1,348.7,241z M156.5,223.9l5.2-15.3l11.2-25l4.6-2.6l13.9-17.3l11.6-12.6l14.5,20.8l9.2-4.2l22,45.1
			l-24.3-19.7l-15-29.1l5.2,22.7l-3.8,2.3l-3.1,12.1l-3.1-15.4L193,213.8l5.4-39.5l-18.8,29.8l-3.8-14.7l-2.8,14.6L156.5,223.9z
			 M328.3,289.4c0,0-61.3-9.5-80.7-13.6c-25.8-5.4-80-11.4-72.9-20.5c0.7-0.9,1.9-1.8,3.5-2.7c0,0-0.1,0-0.1,0
			c26.6-14.6,164.4-37.1,82.4-37.1l-1.5-3.1c108.2-2.6-22.1,26.6-50.7,39c0,0,0,0,0,0c-5,2.2-6.8,3.9-3.3,4.7
			c42.7,10.3,133.6,15.5,133.6,15.5C338.4,279.5,334.1,290.7,328.3,289.4z"/>
	</g>
</g>
</svg>
