<?xml version="1.0" encoding="utf-8"?>
<!-- Generator: Adobe Illustrator 17.1.0, SVG Export Plug-In . SVG Version: 6.00 Build 0)  -->
<!DOCTYPE svg PUBLIC "-//W3C//DTD SVG 1.1//EN" "http://www.w3.org/Graphics/SVG/1.1/DTD/svg11.dtd">
<svg version="1.1" xmlns="http://www.w3.org/2000/svg" xmlns:xlink="http://www.w3.org/1999/xlink" x="0px" y="0px"
	 viewBox="0 0 474.2 474" enable-background="new 0 0 474.2 474" xml:space="preserve">
<g id="Layer_2">
</g>
<g id="Layer_1">
	<g>
		<circle fill="#FFFFFF" cx="236.9" cy="236.9" r="144"/>
		<path fill="#FFFFFF" d="M380.9,236.9c0-2-0.1-4-0.1-6l-63.4-63.4l-29.8,127.8l-102.3,4.2l78.8,78.8
			C330.6,365.6,380.9,307.2,380.9,236.9z"/>
		<path opacity="0.1" fill="#231F20" d="M380.9,236.9c0-2-0.1-4-0.1-6l-63.4-63.4l-29.8,127.8l-102.3,4.2l78.8,78.8
			C330.6,365.6,380.9,307.2,380.9,236.9z"/>
		<g>
			<path fill="#B74E53" d="M306.3,160.8c-26.4-12.6-48,2.5-59.7,14.5c-5.3,5.4-14,5.4-19.3,0c-11.7-12-33.3-27.1-59.7-14.5
				c-40.4,19.3-34.1,65.4-26.2,83.2c11.5,25.7,64.5,77.5,86.2,98c5.2,4.9,13.4,4.9,18.6,0c21.7-20.5,74.8-72.3,86.2-98
				C340.4,226.2,346.7,180.1,306.3,160.8z M288.1,276.2c0,9.9-8,17.9-17.9,17.9h-66.5c-9.9,0-17.9-8-17.9-17.9v-66.5
				c0-9.9,8-17.9,17.9-17.9h66.5c9.9,0,17.9,8,17.9,17.9V276.2z"/>
			<path fill="#B74E53" d="M272.1,228.2h-15.5c-2.7,0-5-2.2-5-5v-15.5c0-2.7-2.2-5-5-5h-19.7c-2.7,0-5,2.2-5,5v15.5c0,2.7-2.2,5-5,5
				h-15.5c-2.7,0-5,2.2-5,5v19.7c0,2.7,2.2,5,5,5h15.5c2.7,0,5,2.2,5,5v15.5c0,2.7,2.2,5,5,5h19.7c2.7,0,5-2.2,5-5v-15.5
				c0-2.7,2.2-5,5-5h15.5c2.7,0,5-2.2,5-5v-19.7C277,230.4,274.8,228.2,272.1,228.2z"/>
		</g>
	</g>
</g>
</svg>
