<?xml version="1.0" encoding="utf-8"?>
<!-- Generator: Adobe Illustrator 17.1.0, SVG Export Plug-In . SVG Version: 6.00 Build 0)  -->
<!DOCTYPE svg PUBLIC "-//W3C//DTD SVG 1.1//EN" "http://www.w3.org/Graphics/SVG/1.1/DTD/svg11.dtd">
<svg version="1.1" xmlns="http://www.w3.org/2000/svg" xmlns:xlink="http://www.w3.org/1999/xlink" x="0px" y="0px"
	 viewBox="0 0 474.2 474" enable-background="new 0 0 474.2 474" xml:space="preserve">
<g id="Layer_2">
</g>
<g id="Layer_1">
	<g>
		<circle fill="#FFFFFF" cx="234.3" cy="231.6" r="144"/>
		<text transform="matrix(1 0 0 1 210.0641 242.6364)" fill="#AD7E50" font-family="'OpenSans-Bold'" font-size="108.8645">?</text>
		<path fill="none" d="M185.9,192.3l38.3-38.3C205,158,189.9,173.1,185.9,192.3z"/>
		<path opacity="0.95" fill="#AD7E50" d="M281.8,153.9l8.2,8.2C287.5,159.2,284.8,156.4,281.8,153.9z"/>
		<path opacity="0.95" fill="#AD7E50" d="M234.2,326.1L234.2,326.1c0.1-0.1,0.1-0.1,0.2-0.2l-19.3-19.3
			C221,313.1,227.3,319.6,234.2,326.1z"/>
		<path opacity="0.95" fill="#AD7E50" d="M224.2,154l16.6-16.6c-2.1-0.2-4.3-0.3-6.5-0.3c-38,0-68.8,27.1-69.1,60.6h0
			c0,0.1,0,0.1,0,0.2c0,0.1,0,0.3,0,0.4c0,2.1,0.1,4.2,0.4,6.3c0.2,2.4,0.5,4.8,0.8,7.2l19.6-19.6C189.9,173.1,205,158,224.2,154z"
			/>
		<path fill="#FFFFFF" d="M377.2,249.3L290,162.1c8.3,10,13.3,22.3,13.5,35.7h0c0,0.1,0,0.1,0,0.2c0,0.1,0,0.3,0,0.4
			c0,2.1-0.1,4.3-0.4,6.3c-3.2,39.6-25.5,80.4-68.6,121.1l43.1,43.1C330.5,352.4,370.3,305.9,377.2,249.3z"/>
		<path opacity="0.1" fill="#231F20" d="M377.2,249.3L290,162.1c8.3,10,13.3,22.3,13.5,35.7h0c0,0.1,0,0.1,0,0.2c0,0.1,0,0.3,0,0.4
			c0,2.1-0.1,4.3-0.4,6.3c-3.2,39.6-25.5,80.4-68.6,121.1l43.1,43.1C330.5,352.4,370.3,305.9,377.2,249.3z"/>
		<path opacity="0.95" fill="#AD7E50" d="M303.1,204.8c0.2-2.1,0.4-4.2,0.4-6.3c0-0.1,0-0.3,0-0.4c0-0.1,0-0.1,0-0.2h0
			c-0.2-13.4-5.1-25.7-13.5-35.7l-8.2-8.2c-10.9-9.1-25.2-15.2-41-16.5L224.2,154c3.3-0.7,6.6-1,10.1-1c27.3,0,49.4,22.1,49.4,49.4
			c0,27.3-22.1,49.4-49.4,49.4c-27.3,0-49.4-22.1-49.4-49.4c0-3.5,0.4-6.8,1-10.1l-19.6,19.6c4.3,31.1,20.2,62.8,48.8,94.7
			l19.3,19.3C277.6,285.1,299.9,244.3,303.1,204.8z"/>
	</g>
</g>
</svg>
