<?xml version="1.0" encoding="utf-8"?>
<!-- Generator: Adobe Illustrator 17.1.0, SVG Export Plug-In . SVG Version: 6.00 Build 0)  -->
<!DOCTYPE svg PUBLIC "-//W3C//DTD SVG 1.1//EN" "http://www.w3.org/Graphics/SVG/1.1/DTD/svg11.dtd">
<svg version="1.1" xmlns="http://www.w3.org/2000/svg" xmlns:xlink="http://www.w3.org/1999/xlink" x="0px" y="0px"
	 viewBox="0 0 474.2 474" enable-background="new 0 0 474.2 474" xml:space="preserve">
<g id="Layer_2">
</g>
<g id="Layer_1">
	<g>
		<circle fill="#FFFFFF" cx="237.1" cy="236.9" r="144"/>
		<path fill="#FFFFFF" d="M381.1,239l-40.7-40.6v54l-141.5,56.5l-65-31.1l103.1,103.1c0.1,0,0.1,0,0.2,0
			C315.9,380.9,380,317.6,381.1,239z"/>
		<path opacity="0.1" fill="#231F20" d="M381.1,239l-40.7-40.6v54l-141.5,56.5l-65.5-32.3l103.6,104.3c0.1,0,0.1,0,0.2,0
			C315.9,380.9,380,317.6,381.1,239z"/>
		<path fill-rule="evenodd" clip-rule="evenodd" fill="#3158A8" d="M286.2,276.8l-21.7,8.9v-52.9L192.7,196
			c6.9-2.8,13.9-5.5,20.8-8.3l72.7,36.7V276.8L286.2,276.8z M290.3,261.9l50.1-20v9.9l-50.1,20V261.9L290.3,261.9z M198.5,308.6
			l-64.6-32.1v-9.9l64.6,32.1l62-24.8v9.9L198.5,308.6L198.5,308.6z M290.3,247.2l50.1-20v9.9l-50.1,20V247.2L290.3,247.2z
			 M198.5,293.8l-64.6-32.1v-9.9l64.6,32.1l62-24.8v9.9L198.5,293.8L198.5,293.8z M290.3,232.4l50.1-20v9.9l-50.1,20V232.4
			L290.3,232.4z M198.5,279L133.9,247v-9.9l64.6,32.1l62-24.8v9.9L198.5,279L198.5,279z M271.2,212.4c-0.1-0.7-0.4-1.3-0.7-2
			c-1.6-3.2-5.2-6.6-10.9-9.5c-5.7-2.9-12.6-4.9-19.5-6c-1.6-0.2-3.2-0.4-4.7-0.6L271.2,212.4L271.2,212.4z M340.3,198.1v9.5
			l-50.1,20V222l-12.2-6.1l12.3-4.9c7.2-2.9,14.4-5.7,21.6-8.6c-0.8-0.4-1.6-0.8-2.4-1.2c-4.4-2.2-3.9-5.6,1.1-7.6
			c0.9-0.4,1.8-0.7,2.8-1.1c-9.5-4.8-18.9-9.6-28.4-14.4c-0.9,0.4-1.8,0.7-2.8,1.1c-4.9,2-12.5,1.8-16.8-0.4
			c-0.8-0.4-1.6-0.8-2.4-1.2c-7.2,2.9-14.4,5.7-21.6,8.6l-12.6,5l-7.8-3.9c18.3-7.3,36.5-14.6,54.8-21.9
			C297.3,176.2,318.8,187.1,340.3,198.1L340.3,198.1z M247.5,228.1l-36.3,14.5c-0.8-0.4-1.6-0.8-2.4-1.2c-4.4-2.2-11.9-2.4-16.8-0.4
			c-0.9,0.4-1.8,0.7-2.8,1.1c-9.5-4.8-18.9-9.6-28.4-14.4c0.9-0.4,1.8-0.7,2.8-1.1c5-2,5.4-5.4,1.1-7.6c-0.8-0.4-1.6-0.8-2.4-1.2
			l36.3-14.5l-7.8-4c-19,7.6-37.9,15.1-56.9,22.7v10.3l64.6,32.1l62-24.8v-4.8L247.5,228.1L247.5,228.1z M202.8,205.3
			c-0.1,1.4,0.1,2.8,0.8,4.2c1.6,3.2,5.2,6.6,10.9,9.4c5.7,2.9,12.6,4.9,19.6,6c3,0.5,6.1,0.8,9.1,0.9L202.8,205.3L202.8,205.3z"/>
	</g>
</g>
</svg>
