<?xml version="1.0" encoding="utf-8"?>
<!-- Generator: Adobe Illustrator 17.1.0, SVG Export Plug-In . SVG Version: 6.00 Build 0)  -->
<!DOCTYPE svg PUBLIC "-//W3C//DTD SVG 1.1//EN" "http://www.w3.org/Graphics/SVG/1.1/DTD/svg11.dtd">
<svg version="1.1" xmlns="http://www.w3.org/2000/svg" xmlns:xlink="http://www.w3.org/1999/xlink" x="0px" y="0px"
	 viewBox="0 0 474.2 474" enable-background="new 0 0 474.2 474" xml:space="preserve">
<g id="Layer_2">
</g>
<g id="Layer_1">
	<circle fill="#FFFFFF" cx="237" cy="237" r="144"/>
	<path fill="#FFFFFF" d="M381,239.2L263.6,121.8v19.1c0,0-4.2-3.1-12.8,0c-8.6,3.1-12.5-1.7-12.5-1.7v14.6h1.1
		c3.4,0,6.2,2.5,6.7,5.8c24.5,4.3,43.1,25.6,43.1,51.4c0,0.5,0,0.9,0,1.4h2.9v12h7.5V236h6.2v53.5h14.9V301h10.9v8.9H147.3h-4.9
		l68.9,68.9c8.4,1.5,17,2.3,25.8,2.3C315.8,381,379.9,317.7,381,239.2z"/>
	<path opacity="0.1" fill="#231F20" d="M381,239.2L263.6,121.8v19.1c0,0-4.2-3.1-12.8,0c-8.6,3.1-12.5-1.7-12.5-1.7v14.6h1.1
		c3.4,0,6.2,2.5,6.7,5.8c24.5,4.3,43.1,25.6,43.1,51.4c0,0.5,0,0.9,0,1.4h2.9v12h7.5V236h6.2v53.5h14.9V301h10.9v8.9H147.3h-4.9
		l68.9,68.9c8.4,1.5,17,2.3,25.8,2.3C315.8,381,379.9,317.7,381,239.2z"/>
	<g>
		<path fill-rule="evenodd" clip-rule="evenodd" fill="#AF4F94" d="M305.8,235.8H168.3v49.4h137.5V235.8z M186.6,277.9h-9.2V243h9.2
			V277.9z M205,277.9h-9.2V243h9.2V277.9z M223.3,277.9h-9.2V243h9.2V277.9z M241.6,277.9h-9.2V243h9.2V277.9z M260,277.9h-9.2V243
			h9.2V277.9z M278.3,277.9h-9.2V243h9.2V277.9z M296.7,277.9h-9.2V243h9.2V277.9z"/>
		<rect x="153.4" y="289.3" fill-rule="evenodd" clip-rule="evenodd" fill="#AF4F94" width="167.3" height="8.9"/>
		<rect x="142.4" y="300.8" fill-rule="evenodd" clip-rule="evenodd" fill="#AF4F94" width="189.2" height="8.9"/>
		<path fill-rule="evenodd" clip-rule="evenodd" fill="#AF4F94" d="M292,212.1h-2.9c0-0.5,0-0.9,0-1.4c0-25.7-18.6-47.1-43.1-51.4
			c-0.4-3.3-3.3-5.8-6.7-5.8h-1.1V139c0,0,4,4.8,12.5,1.7c8.6-3.1,12.8,0,12.8,0V122c0,0-4.2-3.1-12.8,0c-8.6,3.1-12.5-1.7-12.5-1.7
			v0h-2.5v33.2h-1.1c-3.4,0-6.2,2.5-6.7,5.8c-24.5,4.3-43.1,25.6-43.1,51.4c0,0.5,0,0.9,0,1.4H182v8.2h110V212.1z"/>
		<rect x="174.5" y="224.1" fill-rule="evenodd" clip-rule="evenodd" fill="#AF4F94" width="125.1" height="8.2"/>
	</g>
</g>
</svg>
